<?xml version="1.0" encoding="UTF-8"?>
<svg id="Layer_1" xmlns="http://www.w3.org/2000/svg" version="1.1" viewBox="0 0 90 90">
  <!-- Generator: Adobe Illustrator 29.6.0, SVG Export Plug-In . SVG Version: 2.1.1 Build 207)  -->
  <defs>
    <style>
      .st0 {
        fill: #f2edeb;
      }

      .st1 {
        fill: #cc69a6;
      }

      .st2 {
        fill: #4798d3;
      }

      .st3 {
        fill: #fff;
      }

      .st4 {
        fill: #fab700;
      }

      .st5 {
        fill: #ff8300;
      }

      .st6 {
        fill: #003a70;
      }

      .st7 {
        fill: #82ba26;
      }
    </style>
  </defs>
  <circle id="Oval" class="st0" cx="44.92" cy="44.92" r="44.92"/>
  <rect id="Rectangle-path" class="st6" x="60.78" y="34.81" width="2.81" height="2.81"/>
  <rect id="Rectangle-path1" data-name="Rectangle-path" class="st6" x="69.35" y="34.81" width="2.81" height="2.81"/>
  <rect id="Rectangle-path2" data-name="Rectangle-path" class="st6" x="77.77" y="34.81" width="2.81" height="2.81"/>
  <rect id="Rectangle-path3" data-name="Rectangle-path" class="st6" x="9.27" y="52.22" width="2.81" height="2.81"/>
  <rect id="Rectangle-path4" data-name="Rectangle-path" class="st6" x="17.69" y="52.22" width="2.81" height="2.81"/>
  <rect id="Rectangle-path5" data-name="Rectangle-path" class="st6" x="26.25" y="52.22" width="2.81" height="2.81"/>
  <polygon id="Shape" class="st6" points="26.11 11.65 24.15 9.69 26.67 7.02 24.15 4.35 26.11 2.39 30.74 7.02 26.11 11.65"/>
  <rect id="Rectangle-path6" data-name="Rectangle-path" class="st6" x="19.93" y="5.62" width="8.7" height="2.81"/>
  <rect id="Rectangle-path7" data-name="Rectangle-path" class="st1" x="35.66" y="77.07" width="18.53" height="11.37"/>
  <path id="Shape1" data-name="Shape" class="st6" d="M54.19,89.84h-18.53c-.84,0-1.4-.56-1.4-1.4v-11.37c0-.84.56-1.4,1.4-1.4h18.53c.84,0,1.4.56,1.4,1.4v11.37c0,.84-.56,1.4-1.4,1.4ZM37.06,87.04h15.72v-8.56h-15.72v8.56Z"/>
  <rect id="Rectangle-path8" data-name="Rectangle-path" class="st3" x="35.66" y="58.12" width="18.53" height="11.37"/>
  <path id="Shape2" data-name="Shape" class="st6" d="M54.19,70.89h-18.53c-.84,0-1.4-.56-1.4-1.4v-11.37c0-.84.56-1.4,1.4-1.4h18.53c.84,0,1.4.56,1.4,1.4v11.37c0,.84-.56,1.4-1.4,1.4ZM37.06,68.08h15.72v-8.56h-15.72v8.56Z"/>
  <rect id="Rectangle-path9" data-name="Rectangle-path" class="st5" x="35.66" y="39.31" width="18.53" height="11.37"/>
  <path id="Shape3" data-name="Shape" class="st6" d="M54.19,51.94h-18.53c-.84,0-1.4-.56-1.4-1.4v-11.37c0-.84.56-1.4,1.4-1.4h18.53c.84,0,1.4.56,1.4,1.4v11.37c0,.84-.56,1.4-1.4,1.4ZM37.06,49.13h15.72v-8.56h-15.72v8.56Z"/>
  <rect id="Rectangle-path10" data-name="Rectangle-path" class="st3" x="35.66" y="20.36" width="18.53" height="11.37"/>
  <path id="Shape4" data-name="Shape" class="st6" d="M54.19,33.13h-18.53c-.84,0-1.4-.56-1.4-1.4v-11.37c0-.84.56-1.4,1.4-1.4h18.53c.84,0,1.4.56,1.4,1.4v11.37c0,.7-.56,1.4-1.4,1.4ZM37.06,30.32h15.72v-8.56h-15.72v8.56Z"/>
  <rect id="Rectangle-path11" data-name="Rectangle-path" class="st7" x="35.66" y="1.4" width="18.53" height="11.37"/>
  <path id="Shape5" data-name="Shape" class="st6" d="M54.19,14.18h-18.53c-.84,0-1.4-.56-1.4-1.4V1.4c0-.84.56-1.4,1.4-1.4h18.53c.84,0,1.4.56,1.4,1.4v11.37c0,.7-.56,1.4-1.4,1.4ZM37.06,11.37h15.72V2.81h-15.72v8.56Z"/>
  <polygon id="Shape6" data-name="Shape" class="st6" points="60.36 86.9 58.4 84.93 60.93 82.4 58.4 79.74 60.36 77.77 64.86 82.4 60.36 86.9"/>
  <rect id="Rectangle-path12" data-name="Rectangle-path" class="st6" x="54.19" y="81" width="8.7" height="2.81"/>
  <polygon id="Shape7" data-name="Shape" class="st6" points="27.23 86.33 25.13 84.37 27.8 81.7 25.13 79.03 27.23 77.07 31.73 81.7 27.23 86.33"/>
  <path id="Shape8" data-name="Shape" class="st6" d="M29.62,83.11H11.37c-5.76,0-10.39-4.63-10.39-10.39s4.77-10.25,10.53-10.25h24.15v2.81H11.51c-4.21,0-7.58,3.37-7.58,7.58s3.37,7.58,7.58,7.58h18.25v2.67h-.14Z"/>
  <polygon id="Shape9" data-name="Shape" class="st6" points="27.23 48.43 25.13 46.47 27.8 43.94 25.13 41.27 27.23 39.31 31.73 43.94 27.23 48.43"/>
  <path id="Shape10" data-name="Shape" class="st6" d="M29.62,45.34H11.37c-5.76,0-10.39-4.63-10.39-10.39s4.77-10.39,10.53-10.39h24.15v2.81H11.51c-4.21,0-7.58,3.37-7.58,7.58s3.37,7.58,7.58,7.58h18.25v2.81h-.14Z"/>
  <polygon id="Shape11" data-name="Shape" class="st6" points="62.61 68.08 58.12 63.45 62.61 58.96 64.72 60.93 62.05 63.45 64.72 66.12 62.61 68.08"/>
  <path id="Shape12" data-name="Shape" class="st6" d="M78.33,64.86h-18.25v-2.81h18.25c4.21,0,7.58-3.37,7.58-7.58v-.7c0-4.21-3.37-7.58-7.58-7.58h-24.15v-2.81h24.15c5.76,0,10.39,4.63,10.39,10.39v.7c0,5.76-4.63,10.39-10.39,10.39Z"/>
  <polygon id="Shape13" data-name="Shape" class="st6" points="62.61 30.32 58.12 25.69 62.61 21.06 64.72 23.02 62.05 25.69 64.72 28.36 62.61 30.32"/>
  <path id="Shape14" data-name="Shape" class="st6" d="M78.33,27.09h-18.25v-2.81h18.25c4.21,0,7.58-3.37,7.58-7.58v-.7c0-4.21-3.37-7.58-7.58-7.58h-24.15v-2.81h24.15c5.76,0,10.39,4.63,10.39,10.39v.7c0,5.76-4.63,10.39-10.39,10.39Z"/>
  <rect id="Rectangle-path13" data-name="Rectangle-path" class="st2" x="69.91" y="77.07" width="18.53" height="11.37"/>
  <path id="Shape15" data-name="Shape" class="st6" d="M88.44,89.84h-18.53c-.84,0-1.4-.56-1.4-1.4v-11.37c0-.84.56-1.4,1.4-1.4h18.53c.84,0,1.4.56,1.4,1.4v11.37c0,.84-.56,1.4-1.4,1.4ZM71.31,87.04h15.72v-8.56h-15.72v8.56Z"/>
  <rect id="Rectangle-path14" data-name="Rectangle-path" class="st4" x="1.4" y="1.4" width="18.53" height="11.37"/>
  <path id="Shape16" data-name="Shape" class="st6" d="M19.93,14.18H1.4c-.84,0-1.4-.56-1.4-1.4V1.4C0,.56.56,0,1.4,0h18.53c.84,0,1.4.56,1.4,1.4v11.37c0,.7-.56,1.4-1.4,1.4ZM2.81,11.37h15.72V2.81H2.81v8.56Z"/>
</svg>