<?xml version="1.0" encoding="UTF-8"?>
<svg id="Layer_1" xmlns="http://www.w3.org/2000/svg" version="1.1" viewBox="0 0 90 90">
  <!-- Generator: Adobe Illustrator 29.6.0, SVG Export Plug-In . SVG Version: 2.1.1 Build 207)  -->
  <defs>
    <style>
      .st0 {
        fill: #f2edeb;
      }

      .st1 {
        fill: #cc69a6;
      }

      .st2 {
        fill: #4798d3;
      }

      .st3 {
        fill: #fff;
      }

      .st4 {
        fill: #fab700
      }

      .st5 {
        fill: #ff8300;
      }

      .st6 {
        fill: #003a70;
      }

      .st7 {
        fill: #82ba26;
      }
    </style>
  </defs>
  <circle id="Oval" class="st0" cx="44.92" cy="44.92" r="44.92"/>
  <rect id="Rectangle-path" class="st3" x="69.77" y="1.4" width="8.42" height="62.61"/>
  <path id="Shape" class="st6" d="M78.19,65.42h-8.42c-.84,0-1.4-.56-1.4-1.4V1.4c0-.84.56-1.4,1.4-1.4h8.42c.84,0,1.4.56,1.4,1.4v62.61c0,.7-.7,1.4-1.4,1.4ZM71.17,62.61h5.62V2.81h-5.62v59.8Z"/>
  <polyline id="Shape1" data-name="Shape" class="st5" points="69.77 15.72 69.77 64.01 78.19 64.01 78.19 15.72"/>
  <path id="Shape2" data-name="Shape" class="st6" d="M78.19,65.42h-8.42c-.84,0-1.4-.56-1.4-1.4V15.72c0-.84.56-1.4,1.4-1.4s1.4.56,1.4,1.4v46.89h5.62V15.72c0-.84.56-1.4,1.4-1.4s1.4.56,1.4,1.4v48.29c0,.7-.7,1.4-1.4,1.4Z"/>
  <rect id="Rectangle-path1" data-name="Rectangle-path" class="st3" x="40.71" y="1.4" width="8.42" height="62.61"/>
  <path id="Shape3" data-name="Shape" class="st6" d="M49.13,65.42h-8.42c-.84,0-1.4-.56-1.4-1.4V1.4c0-.84.56-1.4,1.4-1.4h8.42c.84,0,1.4.56,1.4,1.4v62.61c0,.7-.56,1.4-1.4,1.4ZM42.11,62.61h5.62V2.81h-5.62v59.8Z"/>
  <polyline id="Shape4" data-name="Shape" class="st1" points="40.71 26.67 40.71 64.01 49.13 64.01 49.13 26.67"/>
  <path id="Shape5" data-name="Shape" class="st6" d="M49.13,65.42h-8.42c-.84,0-1.4-.56-1.4-1.4V26.67c0-.84.56-1.4,1.4-1.4s1.4.56,1.4,1.4v35.94h5.62V26.67c0-.84.56-1.4,1.4-1.4s1.4.56,1.4,1.4v37.34c0,.7-.56,1.4-1.4,1.4Z"/>
  <rect id="Rectangle-path2" data-name="Rectangle-path" class="st3" x="11.65" y="1.4" width="8.42" height="62.61"/>
  <path id="Shape6" data-name="Shape" class="st6" d="M20.07,65.42h-8.42c-.84,0-1.4-.56-1.4-1.4V1.4c0-.84.56-1.4,1.4-1.4h8.42c.84,0,1.4.56,1.4,1.4v62.61c0,.7-.56,1.4-1.4,1.4ZM13.06,62.61h5.62V2.81h-5.62v59.8Z"/>
  <polyline id="Shape7" data-name="Shape" class="st0" points="11.65 37.34 11.65 64.01 20.07 64.01 20.07 37.34"/>
  <path id="Shape8" data-name="Shape" class="st6" d="M20.07,65.42h-8.42c-.84,0-1.4-.56-1.4-1.4v-26.67c0-.84.56-1.4,1.4-1.4s1.4.56,1.4,1.4v25.27h5.62v-25.27c0-.84.56-1.4,1.4-1.4s1.4.56,1.4,1.4v26.67c0,.7-.56,1.4-1.4,1.4Z"/>
  <rect id="Rectangle-path3" data-name="Rectangle-path" class="st6" x="57.98" y="53.34" width="2.81" height="2.81"/>
  <rect id="Rectangle-path4" data-name="Rectangle-path" class="st6" x="57.98" y="44.92" width="2.81" height="2.81"/>
  <rect id="Rectangle-path5" data-name="Rectangle-path" class="st6" x="57.98" y="36.5" width="2.81" height="2.81"/>
  <rect id="Rectangle-path6" data-name="Rectangle-path" class="st6" x="57.98" y="28.08" width="2.81" height="2.81"/>
  <rect id="Rectangle-path7" data-name="Rectangle-path" class="st6" x="57.98" y="19.65" width="2.81" height="2.81"/>
  <rect id="Rectangle-path8" data-name="Rectangle-path" class="st6" x="57.98" y="11.23" width="2.81" height="2.81"/>
  <rect id="Rectangle-path9" data-name="Rectangle-path" class="st6" x="29.06" y="53.34" width="2.81" height="2.81"/>
  <rect id="Rectangle-path10" data-name="Rectangle-path" class="st6" x="29.06" y="44.92" width="2.81" height="2.81"/>
  <rect id="Rectangle-path11" data-name="Rectangle-path" class="st6" x="29.06" y="36.5" width="2.81" height="2.81"/>
  <rect id="Rectangle-path12" data-name="Rectangle-path" class="st6" x="29.06" y="28.08" width="2.81" height="2.81"/>
  <rect id="Rectangle-path13" data-name="Rectangle-path" class="st6" x="29.06" y="19.65" width="2.81" height="2.81"/>
  <rect id="Rectangle-path14" data-name="Rectangle-path" class="st6" x="29.06" y="11.23" width="2.81" height="2.81"/>
  <path id="Shape9" data-name="Shape" class="st2" d="M85.07,77.49l-11.09-6.04-11.09,6.04c-2.11,1.12-3.37,3.37-3.37,5.76v5.19h29.06v-5.19c-.14-2.39-1.4-4.63-3.51-5.76Z"/>
  <path id="Shape10" data-name="Shape" class="st6" d="M88.44,89.84h-29.06c-.84,0-1.4-.56-1.4-1.4v-5.19c0-2.95,1.54-5.62,4.07-7.02l11.09-6.04c.42-.28.98-.28,1.4,0l11.09,6.04c2.53,1.4,4.07,4.07,4.07,7.02v5.19c.14.84-.42,1.4-1.26,1.4ZM60.78,87.04h26.25v-3.79c0-1.82-.98-3.65-2.67-4.49l-10.53-5.76-10.53,5.76c-1.68.84-2.67,2.67-2.67,4.49v3.79h.14Z"/>
  <path id="Shape11" data-name="Shape" class="st7" d="M56.01,77.49l-11.09-6.04-11.09,6.04c-2.11,1.12-3.37,3.37-3.37,5.76v5.19h29.06v-5.19c-.14-2.39-1.4-4.63-3.51-5.76Z"/>
  <path id="Shape12" data-name="Shape" class="st6" d="M59.38,89.84h-28.92c-.84,0-1.4-.56-1.4-1.4v-5.19c0-2.95,1.54-5.62,4.07-7.02l11.09-6.04c.42-.28.98-.28,1.4,0l11.09,6.04c2.53,1.4,4.07,4.07,4.07,7.02v5.19c0,.84-.56,1.4-1.4,1.4ZM31.87,87.04h26.25v-3.79c0-1.82-.98-3.65-2.67-4.49l-10.53-5.76-10.53,5.76c-1.68.84-2.67,2.67-2.67,4.49v3.79h.14Z"/>
  <path id="Shape13" data-name="Shape" class="st3" d="M81.28,64.86c0,4.91-3.23,10.53-7.3,10.53s-7.3-5.47-7.3-10.53,3.23-7.44,7.3-7.44,7.3,2.53,7.3,7.44Z"/>
  <path id="Shape14" data-name="Shape" class="st6" d="M73.98,76.79c-4.91,0-8.7-6.32-8.7-11.93s3.51-8.84,8.7-8.84,8.7,3.51,8.7,8.84c0,5.62-3.79,11.93-8.7,11.93ZM73.98,58.96c-3.65,0-5.9,2.25-5.9,6.04,0,4.49,2.95,9.12,5.9,9.12s5.9-4.63,5.9-9.12c0-3.79-2.25-6.04-5.9-6.04Z"/>
  <path id="Shape15" data-name="Shape" class="st3" d="M52.22,64.86c0,4.91-3.23,10.53-7.3,10.53s-7.3-5.47-7.3-10.53,3.23-7.44,7.3-7.44,7.3,2.53,7.3,7.44Z"/>
  <path id="Shape16" data-name="Shape" class="st6" d="M44.92,76.79c-4.91,0-8.7-6.32-8.7-11.93s3.51-8.84,8.7-8.84,8.7,3.51,8.7,8.84c0,5.62-3.79,11.93-8.7,11.93ZM44.92,58.96c-3.65,0-5.9,2.25-5.9,6.04,0,4.49,2.95,9.12,5.9,9.12s5.9-4.63,5.9-9.12c0-3.79-2.25-6.04-5.9-6.04Z"/>
  <path id="Shape17" data-name="Shape" class="st4" d="M27.09,77.49l-11.09-6.04-11.09,6.04c-2.11,1.12-3.37,3.37-3.37,5.76v5.19h29.06v-5.19c-.14-2.39-1.54-4.63-3.51-5.76Z"/>
  <path id="Shape18" data-name="Shape" class="st6" d="M30.46,89.84H1.4c-.84,0-1.4-.56-1.4-1.4v-5.19c0-2.95,1.54-5.62,4.07-7.02l11.09-6.04c.42-.28.98-.28,1.4,0l11.09,6.04c2.53,1.4,4.07,4.07,4.07,7.02v5.19c.14.84-.56,1.4-1.26,1.4ZM2.81,87.04h26.25v-3.79c0-1.82-.98-3.65-2.67-4.49l-10.53-5.76-10.53,5.76c-1.68.84-2.67,2.67-2.67,4.49v3.79h.14Z"/>
  <path id="Shape19" data-name="Shape" class="st3" d="M23.16,64.86c0,4.91-3.23,10.53-7.3,10.53s-7.3-5.47-7.3-10.53,3.23-7.44,7.3-7.44,7.3,2.53,7.3,7.44Z"/>
  <path id="Shape20" data-name="Shape" class="st6" d="M15.86,76.79c-4.91,0-8.7-6.32-8.7-11.93s3.51-8.84,8.7-8.84,8.7,3.65,8.7,8.84c0,5.62-3.65,11.93-8.7,11.93ZM15.86,58.96c-3.65,0-5.9,2.25-5.9,6.04,0,4.49,2.95,9.12,5.9,9.12s5.9-4.63,5.9-9.12c0-3.79-2.11-6.04-5.9-6.04Z"/>
</svg>