<?xml version="1.0" encoding="UTF-8"?>
<svg id="Layer_1" xmlns="http://www.w3.org/2000/svg" version="1.1" viewBox="0 0 103.1 122.88">
  <!-- Generator: Adobe Illustrator 29.6.0, SVG Export Plug-In . SVG Version: 2.1.1 Build 207)  -->
  <defs>
    <style>
      .st6 {
        fill: #003a70;
        fill-rule: evenodd;
      }
    </style>
  </defs>
  <path class="st6" d="M12.19,98.97c1.14-.52,2.4-.82,3.73-.82h80.11c3.59.16,6.92.1,7.07-2.48V3.31C103.1,1.49,101.61,0,99.79,0H17.15C7.72,0,0,7.72,0,17.15v89.45c0,8.96,7.33,16.29,16.29,16.29h82.75c2.23,0,4.05-1.82,4.05-4.05v-4.49s0-.03,0-.05v-10.23h-14.07v7.54l-70.1.08c-4.97,0-9.04-4.07-9.04-9.04h0c0-1.57.88-3.03,2.3-3.69ZM14.05,25.98c0-6.86,5.62-12.47,12.48-12.47h60.12c1.32,0,2.41,1.08,2.41,2.41v67.19c-.11,1.88-2.53,1.92-5.14,1.8H23.19c-5.2.13-6.19-.02-9.22.87l.08-59.8Z"/>
</svg>