<?xml version="1.0" encoding="UTF-8"?>
<svg id="Layer_1" xmlns="http://www.w3.org/2000/svg" version="1.1" viewBox="0 0 122.88 122.88">
  <!-- Generator: Adobe Illustrator 29.6.0, SVG Export Plug-In . SVG Version: 2.1.1 Build 207)  -->
  <defs>
    <style>
      .st6 {
        fill: #003a70;
      }
    </style>
  </defs>
  <path class="st6" d="M61.44,0c33.94,0,61.47,27.5,61.48,61.44s-27.5,61.47-61.44,61.48c-33.95.01-61.48-27.5-61.48-61.44,0-16.31,6.47-31.95,18-43.48C29.51,6.46,45.14-.02,61.44,0ZM58.19,68.12l-7.66,4.36,30.9,22.75s-4.43-37.81-4.43-37.81l-7.23,4.11M66.46,54.57l6.54-3.75-30.86-22.75s4.41,37.81,4.41,37.81l7.37-4.19M95.36,27.52c-18.71-18.78-49.1-18.83-67.88-.12-18.78,18.71-18.83,49.1-.12,67.88,18.71,18.78,49.1,18.83,67.88.12,9.03-9,14.11-21.22,14.12-33.96.03-12.72-5.01-24.93-14-33.92Z"/>
</svg>