<?xml version="1.0" encoding="UTF-8"?>
<svg id="Layer_1" xmlns="http://www.w3.org/2000/svg" version="1.1" viewBox="0 0 124 124">
  <!-- Generator: Adobe Illustrator 29.6.0, SVG Export Plug-In . SVG Version: 2.1.1 Build 207)  -->
  <defs>
    <style>
      .st6 {
        fill: #003a70;
      }
    </style>
  </defs>
  <path class="st6" d="M62,0C27.81,0,0,27.81,0,62s27.81,62,62,62,62-27.81,62-62S96.19,0,62,0ZM55.02,80.64c3.32-.39,5.21-3.24,4.81-7.25-.14-1.46-.44-4.5-3.59-5.63-7.78-2.79-12.42-10.76-11.03-18.94,1.27-7.53,7.74-13.45,15.37-14.07,4.82-.39,9.42,1.19,12.96,4.45,3.5,3.22,5.5,7.79,5.5,12.52,0,7.21-4.57,13.66-11.36,16.07-2.95,1.04-3.29,3.79-3.49,5.44-.27,2.22.15,4.12,1.21,5.47.86,1.1,2.1,1.77,3.58,1.94,11.23,1.32,21.85,5.91,30.11,13-9.31,10.91-22.72,17.13-37.09,17.14-14.37,0-27.78-6.22-37.09-17.14,8.26-7.08,18.88-11.68,30.11-13ZM92.27,51.72c0-16.69-13.58-30.27-30.27-30.27s-30.27,13.58-30.27,30.27c0,6.96,2.47,13.79,6.85,19.17-7.6,2.62-14.73,6.56-20.86,11.53-2.94-6.36-4.49-13.37-4.49-20.41,0-26.89,21.88-48.77,48.77-48.77s48.77,21.88,48.77,48.77c0,7.04-1.54,14.05-4.49,20.41-6.13-4.97-13.26-8.91-20.86-11.53,4.38-5.38,6.85-12.2,6.85-19.17Z"/>
</svg>