<?xml version="1.0" encoding="UTF-8"?>
<svg id="Layer_1" xmlns="http://www.w3.org/2000/svg" version="1.1" viewBox="0 0 122.88 119.8">
  <!-- Generator: Adobe Illustrator 29.6.0, SVG Export Plug-In . SVG Version: 2.1.1 Build 207)  -->
  <defs>
    <style>
      .st6 {
        fill: #003a70;
      }
    </style>
  </defs>
  <path class="st6" d="M122.87,110.73c-.11-2.12-1.01-4.22-2.65-5.78h-.01l-.16-.16-.02-.02-29.08-26.14c2.23-3.19,4.1-6.65,5.55-10.31h0c.3-.77.6-1.58.88-2.42,1.68-4.99,2.59-10.33,2.59-15.89h0v-.07h0c0-13.79-5.6-26.27-14.63-35.3C76.3,5.61,63.8,0,50,0h-.05c-13.79.02-26.27,5.61-35.3,14.63C5.61,23.68,0,36.17,0,49.97h0v.05h0c0,13.78,5.6,26.27,14.63,35.3,9.04,9.04,21.54,14.64,35.34,14.64h.02c8,0,15.57-1.89,22.27-5.23,1.3-.65,2.58-1.36,3.81-2.11.91-.56,1.81-1.15,2.69-1.77l29.74,26.73.03.02.2.17h.01c1.72,1.45,3.87,2.1,5.97,1.99,2.13-.11,4.22-1,5.78-2.65l.02-.02.15-.16.04-.04.17-.2v-.02c1.45-1.72,2.1-3.87,1.99-5.97v.03ZM49.99,84.99c-19.33,0-35-15.67-35-35S30.66,14.99,49.99,14.99s35,15.67,35,35-15.67,35-35,35Z"/>
</svg>